<svg width="138" height="28" viewBox="0 0 138 28" fill="none" xmlns="http://www.w3.org/2000/svg">
<mask id="mask0_250_488" style="mask-type:luminance" maskUnits="userSpaceOnUse" x="0" y="0" width="138" height="28">
<path d="M138 0L0 0L0 27.9422H138V0Z" fill="white"/>
</mask>
<g mask="url(#mask0_250_488)">
<path d="M6.87034 25.091L0.602173 5.93063H5.20065L10.6477 22.9012H8.34842L14.0418 5.93063H18.1476L23.6219 22.9012H21.4048L26.9887 5.93063H31.2313L24.9632 25.091H20.2005L15.3556 10.2006H16.6147L11.633 25.091H6.87034ZM41.3425 25.091V22.2169L41.0687 21.5874V16.4414C41.0687 15.529 40.7859 14.8174 40.2202 14.3064C39.6728 13.7955 38.8242 13.54 37.6746 13.54C36.89 13.54 36.1144 13.6677 35.348 13.9232C34.5998 14.1604 33.9612 14.4889 33.432 14.9086L31.8991 11.9251C32.7021 11.3594 33.6692 10.9214 34.8006 10.6112C35.9319 10.301 37.0816 10.1459 38.2494 10.1459C40.4939 10.1459 42.2366 10.6751 43.4775 11.7335C44.7183 12.7918 45.3388 14.4433 45.3388 16.6878V25.091H41.3425ZM36.8535 25.3099C35.7038 25.3099 34.7185 25.1183 33.8973 24.7351C33.0761 24.3337 32.4466 23.7954 32.0086 23.1202C31.5707 22.445 31.3517 21.6877 31.3517 20.8483C31.3517 19.9724 31.5616 19.206 31.9813 18.5491C32.4192 17.8921 33.1035 17.3812 34.0342 17.0162C34.9648 16.633 36.1783 16.4414 37.6746 16.4414H41.5888V18.9323H38.1399C37.1363 18.9323 36.4429 19.0965 36.0597 19.425C35.6947 19.7534 35.5122 20.164 35.5122 20.6567C35.5122 21.2041 35.7221 21.6421 36.1418 21.9706C36.5797 22.2808 37.1728 22.4359 37.921 22.4359C38.6326 22.4359 39.2713 22.2717 39.837 21.9432C40.4027 21.5965 40.8133 21.0947 41.0687 20.4377L41.7257 22.4085C41.4154 23.3574 40.8498 24.0782 40.0286 24.5709C39.2074 25.0636 38.1491 25.3099 36.8535 25.3099ZM55.2251 25.3099C53.4916 25.3099 52.1412 24.872 51.1741 23.9961C50.207 23.1019 49.7234 21.779 49.7234 20.0272V7.10762H53.9934V19.9724C53.9934 20.5928 54.1576 21.0764 54.4861 21.4231C54.8146 21.7516 55.2616 21.9158 55.8273 21.9158C56.5025 21.9158 57.0773 21.7333 57.5517 21.3684L58.7013 24.3793C58.2634 24.6895 57.7342 24.9267 57.1137 25.091C56.5116 25.2369 55.8821 25.3099 55.2251 25.3099ZM47.4515 13.978V10.6933H57.6612V13.978H47.4515ZM85.5526 10.1459C86.7204 10.1459 87.7606 10.3831 88.673 10.8576C89.6036 11.3138 90.3335 12.0254 90.8627 12.9926C91.3919 13.9415 91.6565 15.1641 91.6565 16.6604V25.091H87.3865V17.3173C87.3865 16.1312 87.1219 15.2553 86.5927 14.6896C86.0818 14.1239 85.3519 13.8411 84.403 13.8411C83.7278 13.8411 83.1165 13.9871 82.569 14.2791C82.0398 14.5528 81.6202 14.9816 81.3099 15.5655C81.018 16.1495 80.872 16.8976 80.872 17.81V25.091H76.602V4.78101H80.872V14.4433L79.914 13.2116C80.4432 12.2262 81.2004 11.4689 82.1858 10.9397C83.1712 10.4105 84.2935 10.1459 85.5526 10.1459ZM102.942 25.3099C101.263 25.3099 99.7854 24.9815 98.508 24.3245C97.2489 23.6676 96.2727 22.7735 95.5792 21.6421C94.8858 20.4925 94.5391 19.1877 94.5391 17.7279C94.5391 16.2498 94.8767 14.9451 95.5519 13.8137C96.2453 12.6641 97.1851 11.77 98.3712 11.1313C99.5573 10.4744 100.899 10.1459 102.395 10.1459C103.836 10.1459 105.132 10.4561 106.282 11.0765C107.45 11.6787 108.371 12.5546 109.046 13.7042C109.721 14.8356 110.059 16.1951 110.059 17.7827C110.059 17.9469 110.05 18.1385 110.032 18.3575C110.013 18.5582 109.995 18.7498 109.977 18.9323H98.0154V16.4414H107.732L106.09 17.1805C106.09 16.4141 105.935 15.748 105.625 15.1823C105.315 14.6166 104.886 14.1787 104.338 13.8685C103.791 13.54 103.152 13.3758 102.422 13.3758C101.692 13.3758 101.045 13.54 100.479 13.8685C99.9314 14.1787 99.5026 14.6258 99.1923 15.2097C98.8821 15.7754 98.727 16.4506 98.727 17.2352V17.8921C98.727 18.6951 98.9004 19.4067 99.2471 20.0272C99.612 20.6293 100.114 21.0947 100.753 21.4231C101.409 21.7333 102.176 21.8884 103.052 21.8884C103.836 21.8884 104.521 21.7698 105.105 21.5326C105.707 21.2954 106.254 20.9396 106.747 20.4651L109.019 22.9286C108.344 23.695 107.495 24.288 106.473 24.7077C105.451 25.1092 104.274 25.3099 102.942 25.3099ZM112.902 25.091V10.3649H116.98V14.5254L116.405 13.321C116.843 12.2809 117.546 11.4962 118.513 10.9671C119.48 10.4196 120.657 10.1459 122.044 10.1459V14.0875C121.861 14.0692 121.697 14.0601 121.551 14.0601C121.405 14.0418 121.25 14.0327 121.086 14.0327C119.918 14.0327 118.969 14.3703 118.239 15.0455C117.528 15.7024 117.172 16.7334 117.172 18.1385V25.091H112.902ZM129.644 25.3099C128.385 25.3099 127.172 25.1639 126.004 24.872C124.854 24.5618 123.942 24.1786 123.266 23.7224L124.69 20.6567C125.365 21.0764 126.159 21.4231 127.071 21.6968C128.002 21.9523 128.914 22.08 129.808 22.08C130.794 22.08 131.487 21.9614 131.889 21.7242C132.308 21.487 132.518 21.1585 132.518 20.7388C132.518 20.3921 132.354 20.1366 132.025 19.9724C131.715 19.7899 131.296 19.6531 130.766 19.5618C130.237 19.4706 129.653 19.3794 129.015 19.2881C128.394 19.1969 127.765 19.0783 127.126 18.9323C126.487 18.768 125.903 18.5308 125.374 18.2206C124.845 17.9104 124.416 17.4907 124.088 16.9615C123.777 16.4323 123.622 15.748 123.622 14.9086C123.622 13.978 123.887 13.1568 124.416 12.4451C124.964 11.7335 125.748 11.1769 126.77 10.7755C127.792 10.3557 129.015 10.1459 130.438 10.1459C131.442 10.1459 132.463 10.2554 133.504 10.4744C134.544 10.6933 135.411 11.0127 136.104 11.4324L134.681 14.4707C133.969 14.051 133.248 13.7681 132.518 13.6221C131.807 13.4579 131.113 13.3758 130.438 13.3758C129.489 13.3758 128.796 13.5035 128.358 13.759C127.92 14.0145 127.701 14.3429 127.701 14.7444C127.701 15.1093 127.856 15.3831 128.166 15.5655C128.495 15.748 128.923 15.894 129.453 16.0035C129.982 16.113 130.557 16.2133 131.177 16.3046C131.816 16.3776 132.454 16.4962 133.093 16.6604C133.732 16.8246 134.307 17.0619 134.817 17.3721C135.347 17.664 135.775 18.0746 136.104 18.6038C136.432 19.1148 136.597 19.7899 136.597 20.6293C136.597 21.5417 136.323 22.3538 135.775 23.0654C135.228 23.7589 134.434 24.3063 133.394 24.7077C132.372 25.1092 131.122 25.3099 129.644 25.3099Z" fill="white"/>
<path d="M60.0728 16.5066C63.4384 11.1741 66.3484 9.87678 71.7601 8.9487C72.1062 8.88934 72.4215 9.15718 72.4215 9.50828V11.7484C72.4215 12.0396 72.2009 12.2827 71.9123 12.3238C69.0371 12.7342 68.0004 13.8551 67.3138 16.9948C67.2973 17.0682 67.2967 17.1473 67.311 17.221C67.9212 20.3199 69.381 20.9188 71.9984 21.6341C72.2471 21.7021 72.4215 21.9279 72.4215 22.1859V24.3721C72.4215 24.7395 72.0777 25.0109 71.7213 24.9227C66.0673 23.5238 63.3232 21.7984 60.0859 17.1284C59.9582 16.9438 59.9531 16.6965 60.0728 16.5066Z" fill="white"/>
<path d="M72.4215 18.8332V15.0909C72.4215 14.7842 72.178 14.5255 71.8718 14.5457C70.8197 14.6152 70.2962 15.1 69.885 16.7048C69.8651 16.7816 69.8628 16.8637 69.877 16.9416C70.1975 18.6596 70.6817 19.2764 71.8666 19.3759C72.1746 19.4018 72.4215 19.1422 72.4215 18.8332Z" fill="white"/>
<path d="M60.0728 16.5066C63.4384 11.1741 66.3484 9.87678 71.7601 8.9487C72.1062 8.88934 72.4215 9.15718 72.4215 9.50828V11.7484C72.4215 12.0396 72.2009 12.2827 71.9123 12.3238C69.0371 12.7342 68.0004 13.8551 67.3138 16.9948C67.2973 17.0682 67.2967 17.1473 67.311 17.221C67.9212 20.3199 69.381 20.9188 71.9984 21.6341C72.2471 21.7021 72.4215 21.9279 72.4215 22.1859V24.3721C72.4215 24.7395 72.0777 25.0109 71.7213 24.9227C66.0673 23.5238 63.3232 21.7984 60.0859 17.1284C59.9582 16.9438 59.9531 16.6965 60.0728 16.5066Z" stroke="white"/>
<path d="M72.4215 18.8332V15.0909C72.4215 14.7842 72.178 14.5255 71.8718 14.5457C70.8197 14.6152 70.2962 15.1 69.885 16.7048C69.8651 16.7816 69.8628 16.8637 69.877 16.9416C70.1975 18.6596 70.6817 19.2764 71.8666 19.3759C72.1746 19.4018 72.4215 19.1422 72.4215 18.8332Z" stroke="white"/>
</g>
</svg>
